# xmcd CD database file
#
# Track frame offsets:
#	150
#	21858
#	48003
#	71950
#	96933
#	119043
#	143981
#	168753
#
# Disc length: 2585 seconds
#
# Revision: 4
# Processed by: cddbd v1.5.2PL0 Copyright (c) Steve Scherf et al.
# Submitted via: CDex 1.70beta2
#
DISCID=6f0a1708
DTITLE=Horace Silver - Finger Poppin'
DYEAR=1959
DGENRE=Jazz
TTITLE0=Finger Poppin'
TTITLE1=Juicy Lucy
TTITLE2=Swingin' The Samba
TTITLE3=Sweet Stuff
TTITLE4=Cookin' At The Continental
TTITLE5=Come On Home
TTITLE6=You Happened My Way
TTITLE7=Mellow D
EXTD=Finger Poppin'\nHorace Silver\n\nwith Blue Mitchell: trumpet\nJunior Cook: tenor\nGene Taylor: bass\nLouis Hayes: drums\n\nA 1959 Blue Note Session YEAR: 1959
EXTT0=
EXTT1=
EXTT2=
EXTT3=
EXTT4=
EXTT5=
EXTT6=
EXTT7=
PLAYORDER=
